<svg id="Calque_1" data-name="Calque 1" xmlns="http://www.w3.org/2000/svg" viewBox="0 0 200 200"><title>icons-categories</title><path d="M175.79,38.22H24.48a2.61,2.61,0,0,0-2.61,2.61V145.19a2.61,2.61,0,0,0,2.61,2.61H136.66v10.44a2.61,2.61,0,0,0,2.61,2.61h20.87a2.61,2.61,0,0,0,2.61-2.61V147.8h13a2.61,2.61,0,0,0,2.61-2.61V40.83A2.61,2.61,0,0,0,175.79,38.22ZM27.08,43.44H152.31V59.09H27.08ZM157.53,155.63H141.88V93h15.65ZM143.76,87.79,149.7,77.4l5.94,10.39Zm29.42,54.79H162.75V90.4a2.54,2.54,0,0,0-.38-1.27l0,0L152,70.85a2.71,2.71,0,0,0-4.53,0L137,89.11l0,0a2.54,2.54,0,0,0-.38,1.27v52.18H27.08V64.31h146.1Zm0-83.49H157.53V43.44h15.65Z" style="fill:#712ff5"/><path d="M40.13,106.06h83.49a2.61,2.61,0,0,0,2.61-2.61V77.36a2.61,2.61,0,0,0-2.61-2.61H40.13a2.61,2.61,0,0,0-2.61,2.61v26.09A2.61,2.61,0,0,0,40.13,106.06ZM42.74,80H121v20.87H42.74Z" style="fill:#712ff5"/><path d="M55.78,113.88h70.44v5.22H55.78Z" style="fill:#712ff5"/><path d="M40.13,129.54h86.09v5.22H40.13Z" style="fill:#712ff5"/><path d="M45.35,113.88h5.22v5.22H45.35Z" style="fill:#712ff5"/><path d="M162.75,48.66H168v5.22h-5.22Z" style="fill:#712ff5"/></svg>