<svg id="Calque_1" data-name="Calque 1" xmlns="http://www.w3.org/2000/svg" viewBox="0 0 200 200"><title>icons-categories</title><path d="M155.38,38H44.21a8.56,8.56,0,0,0-8.55,8.55V117.1a2.14,2.14,0,0,0,2.14,2.14h124a2.14,2.14,0,0,0,2.14-2.14V46.55A8.56,8.56,0,0,0,155.38,38Zm4.28,77H39.94V46.55a4.28,4.28,0,0,1,4.28-4.28H155.38a4.28,4.28,0,0,1,4.28,4.28Z" style="fill:#712ff5"/><path d="M161.8,115H37.8a2.14,2.14,0,0,0-2.14,2.14v10.69a8.56,8.56,0,0,0,8.55,8.55H155.38a8.56,8.56,0,0,0,8.55-8.55V117.1A2.14,2.14,0,0,0,161.8,115Zm-2.14,12.83a4.28,4.28,0,0,1-4.28,4.28H44.21a4.28,4.28,0,0,1-4.28-4.28v-8.55H159.66v8.55Z" style="fill:#712ff5"/><path d="M106.21,123.52H93.38a2.14,2.14,0,1,0,0,4.28h12.83a2.14,2.14,0,0,0,0-4.28Z" style="fill:#712ff5"/><path d="M153.25,46.55H46.35a2.14,2.14,0,0,0-2.14,2.14V117.1a2.14,2.14,0,0,0,2.14,2.14h106.9a2.14,2.14,0,0,0,2.14-2.14V48.69A2.14,2.14,0,0,0,153.25,46.55ZM151.11,115H48.49V50.83H151.11V115Z" style="fill:#712ff5"/><path d="M127.59,149.17H72A6.41,6.41,0,0,0,72,162h55.59a6.41,6.41,0,1,0,0-12.83Zm0,8.55H72a2.14,2.14,0,1,1,0-4.28h55.59a2.14,2.14,0,1,1,0,4.28Z" style="fill:#712ff5"/><path d="M123.31,149.17c-7.09,0-10.69-5-10.69-15a2.14,2.14,0,0,0-2.14-2.14H89.11A2.14,2.14,0,0,0,87,134.21c0,9.93-3.6,15-10.69,15a2.14,2.14,0,1,0,0,4.28h47a2.14,2.14,0,1,0,0-4.28Zm-36.62,0c2.63-2.92,4.18-7.26,4.49-12.83h17.22c.31,5.57,1.86,9.91,4.49,12.83Z" style="fill:#712ff5"/><path d="M137.82,101l-5.16-5.16L135.53,93a2.14,2.14,0,0,0-.9-3.56L113.25,83a2.14,2.14,0,0,0-2.66,2.66L117,107a2.14,2.14,0,0,0,3.56.9l3-3,5.16,5.16a2.14,2.14,0,0,0,3,0l6-6A2.14,2.14,0,0,0,137.82,101Zm-7.56,4.54-4.7-4.7a2.79,2.79,0,0,0-3.95,0l-1.54,1.54-4.24-14.15L130,92.47l-1.65,1.65a2.42,2.42,0,0,0,0,3.42l5,5Z" style="fill:#712ff5"/><path d="M125.45,55.1H65.59a2.14,2.14,0,0,0-2.14,2.14V67.93a2.14,2.14,0,0,0,2.14,2.14h59.86a2.14,2.14,0,0,0,2.14-2.14V57.24A2.14,2.14,0,0,0,125.45,55.1Zm-2.14,10.69H67.73V59.38h55.59Z" style="fill:#712ff5"/><path d="M91.25,78.62H74.14A2.14,2.14,0,0,0,72,80.76v8.55a2.14,2.14,0,0,0,2.14,2.14h17.1a2.14,2.14,0,0,0,2.14-2.14V80.76A2.14,2.14,0,0,0,91.25,78.62Zm-2.14,8.55H76.28V82.9H89.11Z" style="fill:#712ff5"/><path d="M125.45,55.1H65.59a2.14,2.14,0,0,0-2.14,2.14V97.86A2.14,2.14,0,0,0,65.59,100h50.9a2.14,2.14,0,0,0,2-2.75l-2.71-9,9,2.7a2.14,2.14,0,0,0,2.75-2V57.24A2.14,2.14,0,0,0,125.45,55.1ZM123.31,86l-10.06-3a2.14,2.14,0,0,0-2.66,2.66l3,10.07H67.73V59.38h55.59Z" style="fill:#712ff5"/></svg>