<svg id="Calque_1" data-name="Calque 1" xmlns="http://www.w3.org/2000/svg" viewBox="0 0 200 200"><title>icons-categories</title><path d="M84.91,80A2.07,2.07,0,0,0,83,78.67H66.3a2.08,2.08,0,0,0-2.08,2.08V97.42A2.08,2.08,0,0,0,66.3,99.5H83A2.08,2.08,0,0,0,85,97.42V85.78l7.72-7.72-2.95-2.95Zm-4,15.3H68.38V82.84h12.5v1.22l-4.17,4.17L74,85.53l-2.95,2.95,4.17,4.17a2.08,2.08,0,0,0,2.95,0l2.69-2.69Z" style="fill:#712ff5"/><path d="M89.83,104.28l-4.92,4.92A2.07,2.07,0,0,0,83,107.83H66.3a2.08,2.08,0,0,0-2.08,2.08v16.67a2.08,2.08,0,0,0,2.08,2.08H83A2.08,2.08,0,0,0,85,126.58V114.95l7.72-7.72ZM80.88,124.5H68.38V112h12.5v1.22l-4.17,4.17L74,114.7l-2.95,2.95,4.17,4.17a2.08,2.08,0,0,0,2.95,0l2.69-2.69Z" style="fill:#712ff5"/><path d="M147.52,59.79a2.08,2.08,0,0,0-.11-.54c0-.07,0-.13-.07-.19a2.1,2.1,0,0,0-.42-.61L126.09,37.61a2,2,0,0,0-.61-.42l-.2-.07a2,2,0,0,0-.53-.11l-.12,0H58a6.25,6.25,0,0,0-6.25,6.25v112.5A6.25,6.25,0,0,0,58,162H141.3a6.25,6.25,0,0,0,6.25-6.25V59.92S147.52,59.84,147.52,59.79Zm-7.09-2H128.8a2.08,2.08,0,0,1-2.08-2.08V44.12Zm.86,100H58a2.08,2.08,0,0,1-2.08-2.08V43.25A2.08,2.08,0,0,1,58,41.17h64.58V55.75A6.25,6.25,0,0,0,128.8,62h14.58v93.75A2.08,2.08,0,0,1,141.3,157.83Z" style="fill:#712ff5"/><path d="M122.55,95.48V93.22a10.3,10.3,0,0,0,4.17-8.3V80.75a10.42,10.42,0,0,0-20.83,0v4.17a10.3,10.3,0,0,0,4.17,8.3v2.27a14.61,14.61,0,0,0-12.5,14.44v20.83a2.08,2.08,0,0,0,2.08,2.08H133a2.08,2.08,0,0,0,2.08-2.08V109.92A14.61,14.61,0,0,0,122.55,95.48ZM110,80.75a6.25,6.25,0,0,1,12.5,0v4.17a6.23,6.23,0,0,1-3.14,5.39,2.08,2.08,0,0,0-1,1.8v3.23h-4.17V92.11a2.08,2.08,0,0,0-1-1.8A6.23,6.23,0,0,1,110,84.92Zm8.22,40.91-2,2-2-2,1.73-13.83h.49ZM114.8,99.5h3l-1,4.17h-.91Zm16.08,29.17H101.71V109.92a10.42,10.42,0,0,1,8.83-10.26l1.55,6.21-2,16.28a2.08,2.08,0,0,0,.59,1.73l4.17,4.17a2.08,2.08,0,0,0,2.95,0l4.17-4.17a2.08,2.08,0,0,0,.59-1.73l-2-16.28L122,99.66a10.42,10.42,0,0,1,8.83,10.26Z" style="fill:#712ff5"/></svg>