<svg id="Calque_1" data-name="Calque 1" xmlns="http://www.w3.org/2000/svg" viewBox="0 0 200 200"><title>icons-categories</title><path d="M164,38.43H36a9,9,0,0,0-9,9v86.86a9,9,0,0,0,9,9H79.29l-1.75,14H70.28a2.14,2.14,0,0,0,0,4.28h59.43a2.14,2.14,0,0,0,0-4.28h-7.26l-1.75-14H164a9,9,0,0,0,9-9V47.43A9,9,0,0,0,164,38.43ZM81.85,157.29l1.75-14h7.87l.77,3.09a8,8,0,0,0,15.51,0l.77-3.09h7.87l1.75,14Zm14-14h8.24l-.51,2.05a3.72,3.72,0,0,1-7.21,0Zm72.84-9h0A4.72,4.72,0,0,1,164,139H36a4.72,4.72,0,0,1-4.72-4.72V47.43A4.72,4.72,0,0,1,36,42.71H164a4.72,4.72,0,0,1,4.72,4.72v86.86Z" style="fill:#712ff5"/><path d="M148,47.57H38.28a2.14,2.14,0,0,0-2.14,2.14V132a2.14,2.14,0,0,0,2.14,2.14h4.57a2.14,2.14,0,0,0,0-4.28H40.42v-78H148a2.14,2.14,0,1,0,0-4.28Z" style="fill:#712ff5"/><path d="M161.72,47.57h-4.57a2.14,2.14,0,1,0,0,4.28h2.43v78H52a2.14,2.14,0,0,0,0,4.28H161.72a2.14,2.14,0,0,0,2.14-2.14V49.71A2.14,2.14,0,0,0,161.72,47.57Z" style="fill:#712ff5"/><path d="M129.11,71.25a2.14,2.14,0,0,0-1.59-.82L77.24,68.15h-.12a4.43,4.43,0,0,0-1.78-2.39l-6.16-4.11a2.14,2.14,0,0,0-2.37,3.56L73,69.31a.15.15,0,0,1,.06.08l7.84,27.46A6.73,6.73,0,0,0,82,99.14l-2.87,5.74a4.4,4.4,0,0,0,.19,4.3,4.44,4.44,0,0,0,1.1,1.21,6.71,6.71,0,1,0,12.08.89H112a6.71,6.71,0,1,0,12.26-.56,2.14,2.14,0,0,0-1.43-3.72H83.13a.15.15,0,0,1-.13-.21l2.64-5.29a6.71,6.71,0,0,0,1.67.21,6.89,6.89,0,0,0,.8,0l30.05-3.54A9,9,0,0,0,125.93,91l3.59-18A2.14,2.14,0,0,0,129.11,71.25Zm-10.83,40a2.43,2.43,0,1,1-2.43,2.43A2.44,2.44,0,0,1,118.29,111.28Zm-32,0a2.43,2.43,0,1,1-2.43,2.43A2.44,2.44,0,0,1,86.29,111.28ZM81,81.86l-2.68-9.38,8.55.39,1.48,9Zm6.57,15.56A2.42,2.42,0,0,1,85,95.67l-2.72-9.54H89.1L90.9,97Zm12.54-1.47-5,.59-1.71-10.4h6.71Zm0-14.09H92.73l-1.45-8.79,8.87.4ZM111,94.67l-6.55.77V86.14h7.33Zm1.16-12.81h-7.71v-8.2l8.42.38Zm9.6,8.26a4.71,4.71,0,0,1-4.08,3.76l-2.34.28.73-8h6.49Zm1.65-8.26h-7l.69-7.62,7.72.35Z" style="fill:#712ff5"/></svg>