<svg id="Calque_1" data-name="Calque 1" xmlns="http://www.w3.org/2000/svg" xmlns:xlink="http://www.w3.org/1999/xlink" viewBox="0 0 200 200"><defs><linearGradient id="Dégradé_sans_nom_4" x1="37.4" y1="37.94" x2="163.96" y2="164.5" gradientUnits="userSpaceOnUse"><stop offset="0" stop-color="#712ff5"/><stop offset="1" stop-color="#00ffc3"/></linearGradient></defs><title>icones</title><circle cx="99.74" cy="100.28" r="90.5" style="fill:url(#Dégradé_sans_nom_4)"/><path d="M121.74,44.76H78.26a8.51,8.51,0,0,0-8.51,8.51v95.05a8.51,8.51,0,0,0,8.51,8.51h43.48a8.51,8.51,0,0,0,8.51-8.51V53.28A8.51,8.51,0,0,0,121.74,44.76ZM93.15,52a1.46,1.46,0,0,1,1.46-1.46h10.77A1.46,1.46,0,0,1,106.85,52v2a1.46,1.46,0,0,1-1.46,1.46H94.61A1.46,1.46,0,0,1,93.15,54Zm13.7,97.13a1.46,1.46,0,0,1-1.46,1.46H94.61a1.46,1.46,0,0,1-1.46-1.46v-2a1.46,1.46,0,0,1,1.46-1.46h10.77a1.46,1.46,0,0,1,1.46,1.46Zm19.38-9.41H73.77V61.45h52.46Z" style="fill:#fff"/></svg>