<svg id="Calque_1" data-name="Calque 1" xmlns="http://www.w3.org/2000/svg" xmlns:xlink="http://www.w3.org/1999/xlink" viewBox="0 0 200 200"><defs><linearGradient id="Dégradé_sans_nom_4" x1="36.67" y1="36.67" x2="164.21" y2="164.21" gradientUnits="userSpaceOnUse"><stop offset="0" stop-color="#712ff5"/><stop offset="1" stop-color="#00ffc3"/></linearGradient></defs><title>icones</title><circle cx="100" cy="100" r="90.5" style="fill:url(#Dégradé_sans_nom_4)"/><path d="M89.5,82.94c0-4.44-.11-8.8-.07-13.25a10.58,10.58,0,0,1,7.49-10.16,10.72,10.72,0,0,1,11.95,4.06,9.64,9.64,0,0,1,1.94,5.71c0,5.38-.09,10.6-.15,16,0,.1,0,.2-.05.2h16.22a3.73,3.73,0,0,1,0-.63c0-4.81.05-9.53.08-14.34a26.43,26.43,0,0,0-9.66-21.26,25.39,25.39,0,0,0-13.28-5.73,18.43,18.43,0,0,0-2.55-.16H98.87a14.59,14.59,0,0,0-2.4.16c-10.92,1.82-18.17,8-21.85,18.34a25.53,25.53,0,0,0-1.25,8.77c0,4.81.05,9.43.08,14.24,0,.24,0,.62,0,.62H89.62C89.58,85.14,89.51,83.82,89.5,82.94Z" style="fill:#fff"/><path d="M126,80.88H74A13.88,13.88,0,0,0,60.1,94.76v44.16A13.88,13.88,0,0,0,74,152.8h52a13.88,13.88,0,0,0,13.88-13.88V94.76A13.88,13.88,0,0,0,126,80.88Zm-20.24,40.73v14.94a5.51,5.51,0,1,1-11,0V121.61A12.35,12.35,0,0,1,100,98.07a12.54,12.54,0,0,1,12.56,12.43A13.07,13.07,0,0,1,105.77,121.61Z" style="fill:#fff"/></svg>