<svg id="Calque_1" data-name="Calque 1" xmlns="http://www.w3.org/2000/svg" xmlns:xlink="http://www.w3.org/1999/xlink" viewBox="0 0 200 200"><defs><linearGradient id="Dégradé_sans_nom_4" x1="34.67" y1="34.67" x2="165.03" y2="165.03" gradientUnits="userSpaceOnUse"><stop offset="0" stop-color="#712ff5"/><stop offset="1" stop-color="#00ffc3"/></linearGradient></defs><title>icones</title><circle cx="100" cy="100" r="90.5" style="fill:url(#Dégradé_sans_nom_4)"/><path d="M91.91,131.39l29.8.13a8.13,8.13,0,0,0,5.91-2.41,5.26,5.26,0,0,0,1.61-4.3l.15-32.4s-3.73-9.15-10.48-.08l-.35.4s1.33-5.65-1-7.33c0,0-4.71-5.88-9.65,1.83,0,0,1.21-8.21-3.33-9,0,0-4.44-2.12-7.43,4,0,0,.44-14.35,0-15.61,0,0,1.29-10.29-4.83-10.18,0,0-7.8-1.4-5.46,14.72l-.12,24.93s.16,5-3.2,2.37l-5-8.86s-4-2.08-6.45-.38-1,5-.56,6.09c0,0,10.81,24.22,15.36,33A5.77,5.77,0,0,0,91.91,131.39Z" style="fill:#fff"/><path d="M97.1,82.2s0-.39,0-1a20.61,20.61,0,0,1-10.37-.27l-.07,15.18s.1,3.12-1.54,3.12a2.9,2.9,0,0,1-1.66-.75l-5-8.86a10.12,10.12,0,0,0-4.06-1.05,4.15,4.15,0,0,0-2.39.67c-2.46,1.7-1,5-.56,6.09,0,0,15.74,36.1,17.2,36.1h0l35.21.15s5.84-2.11,5.34-6.72l.15-32.4s-1.67-4.09-4.79-4.09c-1.55,0-3.45,1-5.69,4l-.35.4s1.33-5.65-1-7.33a6,6,0,0,0-4.17-2.14c-1.61,0-3.53.92-5.49,4,0,0,1.21-8.21-3.33-9l-.29-.11A20.94,20.94,0,0,1,97.77,81,12.26,12.26,0,0,0,97.1,82.2Z" style="fill:none"/><path d="M97.13,81.15c.09-3.32.33-13.51,0-14.57,0,0,1.27-10.18-4.74-10.18h-.09a2.85,2.85,0,0,0-.46,0c-1.63,0-7,1-5,14.75l0,9.75a20.61,20.61,0,0,0,10.37.27Z" style="fill:#fff"/><path d="M97.77,81a20.94,20.94,0,0,0,6.46-2.89,4.93,4.93,0,0,0-1.54-.24C101.33,77.85,99.41,78.42,97.77,81Z" style="fill:#fff"/><path d="M86.11,56a7.45,7.45,0,0,1,5.7-2.66h0c.25,0,.47,0,.64,0a6.91,6.91,0,0,1,5.25,2.36c2.9,3.29,2.65,8.89,2.46,10.79a76.89,76.89,0,0,1,.15,8.66,8,8,0,0,1,2.39-.37,7.87,7.87,0,0,1,2.72.48,6.4,6.4,0,0,1,1.55.59,21,21,0,1,0-23.24,3.89l0-8.42C82.73,64,83.5,59,86.11,56Z" style="fill:#fff"/><path d="M97.77,81l-.65.17c0,.65,0,1,0,1A12.26,12.26,0,0,1,97.77,81Z" style="fill:#cd541f"/><rect x="90.39" y="129.61" width="33.89" height="9.97" rx="2.92" ry="2.92" style="fill:#fff"/><rect x="87.32" y="139.06" width="40.01" height="19.03" rx="8.05" ry="8.05" style="fill:#fff"/></svg>