<svg id="Calque_1" data-name="Calque 1" xmlns="http://www.w3.org/2000/svg" viewBox="0 0 254.73 64.33"><title>blanc</title><path d="M70,52.58V12.74H89.61q5.88,0,8.94,2.91a10.45,10.45,0,0,1,3.06,8,7.92,7.92,0,0,1-1.38,4.59A7.6,7.6,0,0,1,96.75,31a11.66,11.66,0,0,1,2.37,1.23A7.32,7.32,0,0,1,101,34.18a9.8,9.8,0,0,1,1.29,2.76,13.06,13.06,0,0,1,.48,3.75,11,11,0,0,1-3.66,8.67q-3.66,3.21-11.22,3.21Zm8-32.94v8.64h10.5q5,0,5-4.32a4,4,0,0,0-1.29-3.3,6.88,6.88,0,0,0-4.23-1ZM88.59,45.8a6.08,6.08,0,0,0,4.5-1.62,5.53,5.53,0,0,0,1.62-4.08,4.5,4.5,0,0,0-1.59-3.84,7.18,7.18,0,0,0-4.41-1.2H78V45.8Z" style="fill:#fff"/><path d="M126.57,52.58V48.43a10,10,0,0,1-9.18,4.92,10.23,10.23,0,0,1-4-.78,9,9,0,0,1-3.15-2.22,10.49,10.49,0,0,1-2.07-3.42,12.43,12.43,0,0,1-.75-4.44V23.06h7.8V41.3q0,5.52,5,5.52a5.48,5.48,0,0,0,4.53-1.89,7.43,7.43,0,0,0,1.53-4.83v-17H134V52.58Z" style="fill:#fff"/><path d="M140.25,19.52V12.26h7.8v7.26Zm0,33.06V23.06h7.8V52.58Z" style="fill:#fff"/><path d="M154.35,52.58V12.26h7.8V52.58Z" style="fill:#fff"/><path d="M188.67,52.58l-.06-3.6a9,9,0,0,1-8.22,4.38,12.17,12.17,0,0,1-5.16-1.08,11.27,11.27,0,0,1-4-3.12,15.11,15.11,0,0,1-2.64-5,21.39,21.39,0,0,1-1-6.66,22,22,0,0,1,.81-6.15,14.54,14.54,0,0,1,2.37-4.83,10.73,10.73,0,0,1,3.81-3.15,11.45,11.45,0,0,1,5.13-1.11,10.26,10.26,0,0,1,8.76,4.62V12.26h7.68V52.58ZM182.19,47a5.82,5.82,0,0,0,4.71-2.34,9.44,9.44,0,0,0,1.89-6.12q0-9.6-6.54-9.6-6.72,0-6.72,9.12a10.5,10.5,0,0,0,1.86,6.45A5.73,5.73,0,0,0,182.19,47Z" style="fill:#fff"/><path d="M202.47,19.52V12.26h7.8v7.26Zm0,33.06V23.06h7.8V52.58Z" style="fill:#fff"/><path d="M233.31,33.14h7.26v8.4a14.44,14.44,0,0,1-.69,4.47,10.47,10.47,0,0,1-2.16,3.78A10.3,10.3,0,0,1,234,52.39a13.64,13.64,0,0,1-5.37,1,14.22,14.22,0,0,1-5.52-1,10.44,10.44,0,0,1-3.75-2.58A9.82,9.82,0,0,1,217.23,46a15.5,15.5,0,0,1-.66-4.56V15.08h7.68v8h16.32v5.52H224.25V40.7a7.64,7.64,0,0,0,1,4.35,3.88,3.88,0,0,0,3.45,1.53,4,4,0,0,0,3.45-1.5,7.06,7.06,0,0,0,1.11-4.26Z" style="fill:#fff"/><polygon points="15.17 41.91 33.72 54.27 33.72 36.13 15.17 23.76 15.17 41.91" style="fill:#fff"/><path d="M35.19,57l0,0-.17.08Z" style="fill:#712ff5"/><polygon points="54.27 41.91 54.27 23.76 35.72 36.13 35.72 54.27 54.27 41.91" style="fill:#fff"/><path d="M34.24,57l.13,0L34.2,57Z" style="fill:#712ff5"/><path d="M37.19,11,34.72,9.39,32.24,11a5.31,5.31,0,0,1,5,0Z" style="fill:#fff"/><path d="M52.42,22.59l1-.7-4.43-3a1.78,1.78,0,0,1,.05.36s0,0,0,0,0,0,0,0V22c0,1.43-1.67,2.55-3.81,2.55S41.47,23.42,41.47,22V19.36s0,0,0,0,0,0,0,0c0-1.43,1.67-2.55,3.81-2.55.18,0,.35,0,.53,0l-8.2-5.47A2.13,2.13,0,0,1,38.52,13s0,0,0,0,0,0,0,0v2.63c0,1.43-1.67,2.55-3.81,2.55s-3.81-1.12-3.81-2.55V13s0,0,0,0,0,0,0,0a2.13,2.13,0,0,1,.92-1.66l-8.26,5.5a5.79,5.79,0,0,1,.86-.07c2.13,0,3.81,1.12,3.81,2.55,0,0,0,0,0,0s0,0,0,0V22c0,1.43-1.67,2.55-3.81,2.55S20.64,23.42,20.64,22V19.36s0,0,0,0,0,0,0,0a1.8,1.8,0,0,1,.11-.59L16,21.89l4,2.64,14.79,9.86Zm-21.51,5.9V25.86s0,0,0,0,0,0,0,0c0-1.43,1.67-2.55,3.81-2.55s3.81,1.12,3.81,2.55c0,0,0,0,0,0s0,0,0,0v2.63c0,1.43-1.67,2.55-3.81,2.55S30.91,29.91,30.91,28.49Z" style="fill:#fff"/><polygon points="19.93 24.53 34.72 34.39 34.72 34.39 19.93 24.53" style="fill:#fff"/><polygon points="34.72 34.39 52.42 22.59 34.72 34.39 34.72 34.39" style="fill:#fff"/><circle cx="34.72" cy="34.39" transform="translate(-7.3 9.45) rotate(-14.04)" style="fill:#fff"/><path d="M34.72,11.19c-1.65,0-3,.82-3,1.78s1.39,1.78,3,1.78,3-.82,3-1.78S36.37,11.19,34.72,11.19Z" style="fill:#fff"/><path d="M30.91,13s0,0,0,0c0-1.41,1.68-2.51,3.8-2.51s3.77,1.1,3.8,2.51c0,0,0,0,0,0a2.13,2.13,0,0,0-.92-1.66,3.4,3.4,0,0,0-.41-.27,5.31,5.31,0,0,0-5,0,3.4,3.4,0,0,0-.4.27A2.13,2.13,0,0,0,30.91,13Z" style="fill:#fff"/><path d="M34.72,10.5c-2.12,0-3.77,1.1-3.8,2.51s1.68,2.51,3.8,2.51,3.77-1.1,3.8-2.51S36.83,10.5,34.72,10.5Zm0,4.64c-1.89,0-3.43-1-3.43-2.16s1.53-2.16,3.43-2.16,3.43,1,3.43,2.16S36.61,15.14,34.72,15.14Z" style="fill:#fff"/><path d="M34.72,10.81c-1.89,0-3.43,1-3.43,2.16s1.53,2.16,3.43,2.16,3.43-1,3.43-2.16S36.61,10.81,34.72,10.81Zm0,3.95c-1.65,0-3-.82-3-1.78s1.39-1.78,3-1.78,3,.82,3,1.78S36.37,14.76,34.72,14.76Z" style="fill:#fff"/><path d="M34.72,27.57c1.65,0,3-.82,3-1.78S36.37,24,34.72,24s-3,.82-3,1.78S33.07,27.57,34.72,27.57Z" style="fill:#fff"/><path d="M34.72,23.31c2.12,0,3.77,1.1,3.8,2.51,0,0,0,0,0,0,0-1.43-1.67-2.55-3.81-2.55s-3.81,1.12-3.81,2.55c0,0,0,0,0,0C30.94,24.41,32.6,23.31,34.72,23.31Z" style="fill:#fff"/><path d="M34.72,28.33c2.12,0,3.77-1.1,3.8-2.51s-1.68-2.51-3.8-2.51-3.77,1.1-3.8,2.51S32.6,28.33,34.72,28.33Zm0-4.71c1.89,0,3.43,1,3.43,2.16S36.61,28,34.72,28s-3.43-1-3.43-2.16S32.82,23.62,34.72,23.62Z" style="fill:#fff"/><path d="M34.72,28c1.89,0,3.43-1,3.43-2.16s-1.53-2.16-3.43-2.16-3.43,1-3.43,2.16S32.82,28,34.72,28Zm0-3.95c1.65,0,3,.82,3,1.78s-1.39,1.78-3,1.78-3-.82-3-1.78S33.07,24,34.72,24Z" style="fill:#fff"/><path d="M42.23,19.29c0,1,1.39,1.78,3,1.78s3-.82,3-1.78-1.39-1.78-3-1.78S42.23,18.33,42.23,19.29Z" style="fill:#fff"/><path d="M41.47,19.29s0,0,0,0c0-1.41,1.68-2.51,3.8-2.51a5.82,5.82,0,0,1,.64,0l-.12-.08c-.17,0-.35,0-.53,0C43.14,16.75,41.47,17.87,41.47,19.29Z" style="fill:#fff"/><path d="M49.08,19.33s0,0,0,0a1.78,1.78,0,0,0-.05-.36h0A1.8,1.8,0,0,1,49.08,19.33Z" style="fill:#fff"/><path d="M49,18.93h0c-.23-1.13-1.53-2-3.23-2.15l.12.08C47.52,17,48.75,17.86,49,18.93Z" style="fill:#fff"/><path d="M48.5,18.58a1.47,1.47,0,0,1,.21.72c0,1.2-1.53,2.16-3.43,2.16s-3.43-1-3.43-2.16,1.53-2.16,3.43-2.16a5.18,5.18,0,0,1,1.29.16l-.65-.43a5.82,5.82,0,0,0-.64,0c-2.12,0-3.77,1.1-3.8,2.51s1.68,2.51,3.8,2.51,3.77-1.1,3.8-2.51a1.8,1.8,0,0,0-.06-.4Z" style="fill:#fff"/><path d="M48.5,18.58l.52.35c-.27-1.07-1.5-1.89-3.1-2.07l.65.43A3,3,0,0,1,48.5,18.58Z" style="fill:#fff"/><path d="M45.28,17.13c-1.89,0-3.43,1-3.43,2.16s1.53,2.16,3.43,2.16,3.43-1,3.43-2.16a1.47,1.47,0,0,0-.21-.72l-1.93-1.29A5.18,5.18,0,0,0,45.28,17.13Zm3,2.16c0,1-1.39,1.78-3,1.78s-3-.82-3-1.78,1.39-1.78,3-1.78S48.32,18.33,48.32,19.29Z" style="fill:#fff"/><path d="M46.56,17.29l1.93,1.29A3,3,0,0,0,46.56,17.29Z" style="fill:#fff"/><path d="M24.44,21.08c1.65,0,3-.82,3-1.78s-1.39-1.78-3-1.78-3,.82-3,1.78S22.79,21.08,24.44,21.08Z" style="fill:#fff"/><path d="M24.44,16.82c2.12,0,3.77,1.1,3.8,2.51,0,0,0,0,0,0,0-1.43-1.67-2.55-3.81-2.55a5.79,5.79,0,0,0-.86.07l-.15.1A5.69,5.69,0,0,1,24.44,16.82Z" style="fill:#fff"/><path d="M20.64,19.33a1.82,1.82,0,0,1,.15-.65l0,0a1.8,1.8,0,0,0-.11.59S20.64,19.32,20.64,19.33Z" style="fill:#fff"/><path d="M23.43,16.92l.15-.1a3.37,3.37,0,0,0-2.84,1.89l0,0A3.36,3.36,0,0,1,23.43,16.92Z" style="fill:#fff"/><path d="M24.44,16.82a5.69,5.69,0,0,0-1,.1l-.84.56a4.93,4.93,0,0,1,1.85-.35c1.89,0,3.43,1,3.43,2.16s-1.53,2.16-3.43,2.16S21,20.49,21,19.29a1.61,1.61,0,0,1,.48-1.09l-.71.47a1.82,1.82,0,0,0-.15.65c0,1.41,1.68,2.51,3.8,2.51s3.77-1.1,3.8-2.51S26.56,16.82,24.44,16.82Z" style="fill:#fff"/><path d="M22.59,17.48l.84-.56a3.36,3.36,0,0,0-2.64,1.76l.71-.47A3,3,0,0,1,22.59,17.48Z" style="fill:#fff"/><path d="M21,19.29c0,1.2,1.53,2.16,3.43,2.16s3.43-1,3.43-2.16-1.53-2.16-3.43-2.16a4.93,4.93,0,0,0-1.85.35l-1.09.73A1.61,1.61,0,0,0,21,19.29Zm3.43-1.78c1.65,0,3,.82,3,1.78s-1.39,1.78-3,1.78-3-.82-3-1.78S22.79,17.51,24.44,17.51Z" style="fill:#fff"/><path d="M22.59,17.48a3,3,0,0,0-1.09.73Z" style="fill:#fff"/></svg>