<svg id="Calque_1" data-name="Calque 1" xmlns="http://www.w3.org/2000/svg" viewBox="0 0 254.73 64.33"><title>vert</title><path d="M70,51.58V11.74H89.61q5.88,0,8.94,2.91a10.45,10.45,0,0,1,3.06,8,7.92,7.92,0,0,1-1.38,4.59A7.6,7.6,0,0,1,96.75,30a11.66,11.66,0,0,1,2.37,1.23A7.32,7.32,0,0,1,101,33.18a9.8,9.8,0,0,1,1.29,2.76,13.06,13.06,0,0,1,.48,3.75,11,11,0,0,1-3.66,8.67q-3.66,3.21-11.22,3.21Zm8-32.94v8.64h10.5q5,0,5-4.32a4,4,0,0,0-1.29-3.3,6.88,6.88,0,0,0-4.23-1ZM88.59,44.8a6.08,6.08,0,0,0,4.5-1.62,5.53,5.53,0,0,0,1.62-4.08,4.5,4.5,0,0,0-1.59-3.84,7.18,7.18,0,0,0-4.41-1.2H78V44.8Z"/><path d="M126.57,51.58V47.43a10,10,0,0,1-9.18,4.92,10.23,10.23,0,0,1-4-.78,9,9,0,0,1-3.15-2.22,10.49,10.49,0,0,1-2.07-3.42,12.43,12.43,0,0,1-.75-4.44V22.06h7.8V40.3q0,5.52,5,5.52a5.48,5.48,0,0,0,4.53-1.89,7.43,7.43,0,0,0,1.53-4.83v-17H134V51.58Z"/><path d="M140.25,18.52V11.26h7.8v7.26Zm0,33.06V22.06h7.8V51.58Z"/><path d="M154.35,51.58V11.26h7.8V51.58Z"/><path d="M188.67,51.58l-.06-3.6a9,9,0,0,1-8.22,4.38,12.17,12.17,0,0,1-5.16-1.08,11.27,11.27,0,0,1-4-3.12,15.11,15.11,0,0,1-2.64-5,21.39,21.39,0,0,1-1-6.66,22,22,0,0,1,.81-6.15,14.54,14.54,0,0,1,2.37-4.83,10.73,10.73,0,0,1,3.81-3.15,11.45,11.45,0,0,1,5.13-1.11,10.26,10.26,0,0,1,8.76,4.62V11.26h7.68V51.58ZM182.19,46a5.82,5.82,0,0,0,4.71-2.34,9.44,9.44,0,0,0,1.89-6.12q0-9.6-6.54-9.6-6.72,0-6.72,9.12a10.5,10.5,0,0,0,1.86,6.45A5.73,5.73,0,0,0,182.19,46Z"/><path d="M202.47,18.52V11.26h7.8v7.26Zm0,33.06V22.06h7.8V51.58Z" style="fill:#00ffc3"/><path d="M233.31,32.14h7.26v8.4a14.44,14.44,0,0,1-.69,4.47,10.47,10.47,0,0,1-2.16,3.78A10.3,10.3,0,0,1,234,51.39a13.64,13.64,0,0,1-5.37,1,14.22,14.22,0,0,1-5.52-1,10.44,10.44,0,0,1-3.75-2.58A9.82,9.82,0,0,1,217.23,45a15.5,15.5,0,0,1-.66-4.56V14.08h7.68v8h16.32v5.52H224.25V39.7a7.64,7.64,0,0,0,1,4.35,3.88,3.88,0,0,0,3.45,1.53,4,4,0,0,0,3.45-1.5,7.06,7.06,0,0,0,1.11-4.26Z" style="fill:#00ffc3"/><polygon points="14.17 20.89 14.17 41.44 34.72 55.14 34.72 34.59 14.17 20.89" style="fill:#03d896"/><polygon points="34.72 34.59 55.27 20.89 55.27 41.44 34.72 55.14 34.72 34.59" style="fill:#03efa7"/><polygon points="14.17 20.89 34.72 7.19 55.27 20.89 34.72 34.59 14.17 20.89" style="fill:#00ffc3"/><path d="M34.72,9.5c-2.13,0-3.81,1.12-3.81,2.55v2.63c0,1.43,1.67,2.55,3.81,2.55s3.81-1.12,3.81-2.55V12C38.52,10.62,36.85,9.5,34.72,9.5Z" style="fill:#03d896"/><ellipse cx="34.72" cy="11.98" rx="3.43" ry="2.16" style="fill:#00ffc3"/><path d="M34.72,14.52c-2.13,0-3.81-1.12-3.81-2.55s1.67-2.55,3.81-2.55,3.81,1.12,3.81,2.55S36.85,14.52,34.72,14.52Zm0-4.33c-1.65,0-3,.82-3,1.78s1.39,1.78,3,1.78,3-.82,3-1.78S36.37,10.19,34.72,10.19Z" style="fill:#00ffc3"/><path d="M34.72,22.31c-2.13,0-3.81,1.12-3.81,2.55v2.63c0,1.43,1.67,2.55,3.81,2.55s3.81-1.12,3.81-2.55V24.86C38.52,23.43,36.85,22.31,34.72,22.31Z" style="fill:#03d896"/><ellipse cx="34.72" cy="24.79" rx="3.43" ry="2.16" style="fill:#00ffc3"/><path d="M34.72,27.33c-2.13,0-3.81-1.12-3.81-2.55s1.67-2.55,3.81-2.55,3.81,1.12,3.81,2.55S36.85,27.33,34.72,27.33Zm0-4.33c-1.65,0-3,.82-3,1.78s1.39,1.78,3,1.78,3-.82,3-1.78S36.37,23,34.72,23Z" style="fill:#00ffc3"/><path d="M45.28,15.82c-2.13,0-3.81,1.12-3.81,2.55V21c0,1.43,1.67,2.55,3.81,2.55s3.81-1.12,3.81-2.55V18.36C49.08,16.94,47.41,15.82,45.28,15.82Z" style="fill:#03d896"/><ellipse cx="45.28" cy="18.29" rx="3.43" ry="2.16" style="fill:#00ffc3"/><path d="M45.28,20.84c-2.13,0-3.81-1.12-3.81-2.55s1.67-2.55,3.81-2.55,3.81,1.12,3.81,2.55S47.41,20.84,45.28,20.84Zm0-4.33c-1.65,0-3,.82-3,1.78s1.39,1.78,3,1.78,3-.82,3-1.78S46.93,16.51,45.28,16.51Z" style="fill:#00ffc3"/><path d="M24.44,15.82c-2.13,0-3.81,1.12-3.81,2.55V21c0,1.43,1.67,2.55,3.81,2.55s3.81-1.12,3.81-2.55V18.36C28.25,16.94,26.58,15.82,24.44,15.82Z" style="fill:#03d896"/><ellipse cx="24.44" cy="18.29" rx="3.43" ry="2.16" style="fill:#00ffc3"/><path d="M24.44,20.84c-2.13,0-3.81-1.12-3.81-2.55s1.67-2.55,3.81-2.55,3.81,1.12,3.81,2.55S26.58,20.84,24.44,20.84Zm0-4.33c-1.65,0-3,.82-3,1.78s1.39,1.78,3,1.78,3-.82,3-1.78S26.09,16.51,24.44,16.51Z" style="fill:#00ffc3"/></svg>