<svg id="Calque_1" data-name="Calque 1" xmlns="http://www.w3.org/2000/svg" viewBox="0 0 200 200"><title>palettes</title><circle cx="101.27" cy="80" r="56" style="fill:#4e7d7b"/><path d="M58.47,154h2.26v8.85h5.39v1.94H58.47Z"/><path d="M72.67,157A3.25,3.25,0,0,1,74,158.14a3.91,3.91,0,0,1,.64,1.65,10.1,10.1,0,0,1,.07,1.58H68.94a1.92,1.92,0,0,0,.84,1.68,2.12,2.12,0,0,0,1.15.3,1.77,1.77,0,0,0,1.16-.37,1.75,1.75,0,0,0,.43-.55h2.13a2.6,2.6,0,0,1-.77,1.44,3.88,3.88,0,0,1-3,1.16,4.35,4.35,0,0,1-2.81-1,3.87,3.87,0,0,1-1.22-3.2,4.33,4.33,0,0,1,1.1-3.18,3.85,3.85,0,0,1,2.86-1.11A4.54,4.54,0,0,1,72.67,157Zm-3.12,1.8A2.17,2.17,0,0,0,69,160h3.6a1.75,1.75,0,0,0-.56-1.26,1.83,1.83,0,0,0-1.24-.43A1.66,1.66,0,0,0,69.55,158.77Z"/><path d="M80.73,156.8H83l-2.88,8h-2.2l-2.86-8h2.34L79,162.69Z"/><path d="M89.35,157a3.25,3.25,0,0,1,1.38,1.18,3.93,3.93,0,0,1,.64,1.65,10.32,10.32,0,0,1,.07,1.58H85.62a1.91,1.91,0,0,0,.83,1.68,2.12,2.12,0,0,0,1.15.3,1.62,1.62,0,0,0,1.59-.92h2.13a2.61,2.61,0,0,1-.77,1.44,3.88,3.88,0,0,1-3,1.16,4.35,4.35,0,0,1-2.81-1,3.87,3.87,0,0,1-1.22-3.2,4.32,4.32,0,0,1,1.1-3.18,3.85,3.85,0,0,1,2.85-1.11A4.54,4.54,0,0,1,89.35,157Zm-3.12,1.8a2.17,2.17,0,0,0-.56,1.24h3.6a1.74,1.74,0,0,0-.56-1.26,1.83,1.83,0,0,0-1.24-.43A1.65,1.65,0,0,0,86.23,158.77Z"/><path d="M94.62,164.79H92.54V154h2.09Z"/><path d="M108.25,157.36a2.11,2.11,0,0,0-1.25-1.55,3.08,3.08,0,0,0-1.24-.24,2.69,2.69,0,0,0-2.14,1,4.46,4.46,0,0,0-.84,3,3.67,3.67,0,0,0,.91,2.81,3,3,0,0,0,2.07.83,2.68,2.68,0,0,0,1.86-.65,2.81,2.81,0,0,0,.89-1.71H106V159h4.5v5.79H109l-.23-1.35a5.17,5.17,0,0,1-1.17,1.08,4.13,4.13,0,0,1-2.2.55,4.57,4.57,0,0,1-3.52-1.49,5.66,5.66,0,0,1-1.43-4.08,6,6,0,0,1,1.44-4.2,4.92,4.92,0,0,1,3.82-1.58,5,5,0,0,1,3.31,1,3.88,3.88,0,0,1,1.43,2.6Z"/><path d="M116.93,156.62h.18v2.14l-.35,0h-.25a1.73,1.73,0,0,0-1.69.82,3.21,3.21,0,0,0-.24,1.42v3.82h-2.1v-8h2v1.39a4.41,4.41,0,0,1,.84-1.09,2.29,2.29,0,0,1,1.52-.49Z"/><path d="M123.54,157a3.24,3.24,0,0,1,1.38,1.18,3.93,3.93,0,0,1,.64,1.65,10.35,10.35,0,0,1,.07,1.58H119.8a1.91,1.91,0,0,0,.83,1.68,2.12,2.12,0,0,0,1.15.3,1.62,1.62,0,0,0,1.59-.92h2.13a2.6,2.6,0,0,1-.77,1.44,3.88,3.88,0,0,1-3,1.16,4.35,4.35,0,0,1-2.81-1,3.87,3.87,0,0,1-1.22-3.2,4.32,4.32,0,0,1,1.1-3.18,3.85,3.85,0,0,1,2.85-1.11A4.55,4.55,0,0,1,123.54,157Zm-3.12,1.8a2.17,2.17,0,0,0-.56,1.24h3.6a1.75,1.75,0,0,0-.56-1.26,1.83,1.83,0,0,0-1.24-.43A1.65,1.65,0,0,0,120.41,158.77Z"/><path d="M131.88,157a3.25,3.25,0,0,1,1.38,1.18,3.91,3.91,0,0,1,.64,1.65,10.1,10.1,0,0,1,.07,1.58h-5.81a1.92,1.92,0,0,0,.84,1.68,2.12,2.12,0,0,0,1.15.3,1.77,1.77,0,0,0,1.16-.37,1.75,1.75,0,0,0,.43-.55h2.13a2.6,2.6,0,0,1-.77,1.44,3.88,3.88,0,0,1-3,1.16,4.35,4.35,0,0,1-2.81-1,3.87,3.87,0,0,1-1.22-3.2,4.33,4.33,0,0,1,1.1-3.18,3.85,3.85,0,0,1,2.86-1.11A4.54,4.54,0,0,1,131.88,157Zm-3.12,1.8a2.17,2.17,0,0,0-.56,1.24h3.6a1.75,1.75,0,0,0-.56-1.26,1.83,1.83,0,0,0-1.24-.43A1.66,1.66,0,0,0,128.75,158.77Z"/><path d="M141.46,157.26a2.64,2.64,0,0,1,.78,2.15v5.38H140.1v-4.86a2.23,2.23,0,0,0-.17-1,1.18,1.18,0,0,0-1.16-.62,1.44,1.44,0,0,0-1.45.9,3.13,3.13,0,0,0-.2,1.22v4.32H135v-8h2V158a3.54,3.54,0,0,1,.76-.89,2.63,2.63,0,0,1,1.63-.48A3.06,3.06,0,0,1,141.46,157.26Z"/><path d="M79.21,173.57l-.26,2.11h1.68l-.1,1h-1.7l-.26,2.07h-1l.25-2.07H75.68l-.26,2.07h-1l.25-2.07H73l.1-1H74.8l.25-2.11H73.38l.1-1h1.7l.26-2.15h1l-.26,2.15h2.12l.26-2.15h1l-.26,2.15H81l-.08,1Zm-1,0H76.07l-.26,2.11h2.13Z" style="fill:#712ff5"/><path d="M86,170.39l-2.72,5.07h2.5v-2H87v2h1.22v1.26H87v2.06H85.73v-2.06h-4v-1.06l2.87-5.28Z" style="fill:#712ff5"/><path d="M95.65,170.39v1.27H91.07v2.28h4.1v1.26h-4.1v2.31h4.73v1.27H89.65v-8.4Z" style="fill:#712ff5"/><path d="M103,170.39v1.08l-3.35,7.32h-1.5l3.26-7.12H98.13v1.18H96.87v-2.45Z" style="fill:#712ff5"/><path d="M112.15,174.59a4.15,4.15,0,0,1-4.38,4.2h-3.41v-8.4h3.44A4.13,4.13,0,0,1,112.15,174.59Zm-1.43,0a2.86,2.86,0,0,0-2.94-2.94h-2v5.85h2.06A2.81,2.81,0,0,0,110.72,174.6Z" style="fill:#712ff5"/><path d="M119.11,170.39v1.08l-3.35,7.32h-1.5l3.26-7.12h-3.26v1.18H113v-2.45Z" style="fill:#712ff5"/><path d="M127,172.49a1.86,1.86,0,0,1-1.47,1.87,2,2,0,0,1,1.8,2.12c0,1.44-1.16,2.3-3.06,2.3h-3.73v-8.4h3.65C125.89,170.39,127,171.18,127,172.49Zm-1.45.25c0-.7-.54-1.09-1.44-1.08h-2.16v2.21h2.16C125,173.87,125.52,173.46,125.52,172.74Zm.32,3.56c0-.74-.66-1.2-1.76-1.19h-2.16v2.4h2.16C125.18,177.53,125.84,177.08,125.84,176.3Z" style="fill:#712ff5"/></svg>