<svg id="Calque_1" data-name="Calque 1" xmlns="http://www.w3.org/2000/svg" viewBox="0 0 200 200"><title>palettes</title><circle cx="100" cy="80" r="56" style="fill:#fcc07f"/><path d="M55.67,154h2.26v8.85h5.39v1.94H55.67Z"/><path d="M69.86,157a3.25,3.25,0,0,1,1.38,1.18,3.92,3.92,0,0,1,.64,1.65,10.21,10.21,0,0,1,.07,1.58H66.13a1.91,1.91,0,0,0,.83,1.68,2.12,2.12,0,0,0,1.15.3,1.62,1.62,0,0,0,1.59-.92h2.13a2.61,2.61,0,0,1-.77,1.44,3.88,3.88,0,0,1-3,1.16,4.35,4.35,0,0,1-2.81-1,3.87,3.87,0,0,1-1.22-3.2,4.32,4.32,0,0,1,1.1-3.18A3.85,3.85,0,0,1,68,156.59,4.54,4.54,0,0,1,69.86,157Zm-3.12,1.8a2.17,2.17,0,0,0-.56,1.24h3.6a1.74,1.74,0,0,0-.56-1.26,1.83,1.83,0,0,0-1.24-.43A1.65,1.65,0,0,0,66.74,158.77Z"/><path d="M77.92,156.8h2.24l-2.88,8h-2.2l-2.86-8h2.34l1.66,5.89Z"/><path d="M86.55,157a3.25,3.25,0,0,1,1.38,1.18,3.92,3.92,0,0,1,.64,1.65,10.21,10.21,0,0,1,.07,1.58H82.82a1.91,1.91,0,0,0,.83,1.68,2.12,2.12,0,0,0,1.15.3,1.62,1.62,0,0,0,1.59-.92h2.13a2.61,2.61,0,0,1-.77,1.44,3.88,3.88,0,0,1-3,1.16,4.35,4.35,0,0,1-2.81-1,3.87,3.87,0,0,1-1.22-3.2,4.32,4.32,0,0,1,1.1-3.18,3.85,3.85,0,0,1,2.85-1.11A4.54,4.54,0,0,1,86.55,157Zm-3.12,1.8a2.17,2.17,0,0,0-.56,1.24h3.6a1.74,1.74,0,0,0-.56-1.26,1.83,1.83,0,0,0-1.24-.43A1.65,1.65,0,0,0,83.42,158.77Z"/><path d="M91.82,164.79H89.73V154h2.09Z"/><path d="M104.09,154h2.56L103,160.74v4h-2.26v-4L97,154H99.7l2.24,4.7Z"/><path d="M112.15,157a3.25,3.25,0,0,1,1.38,1.18,3.92,3.92,0,0,1,.64,1.65,10.21,10.21,0,0,1,.07,1.58h-5.81a1.91,1.91,0,0,0,.83,1.68,2.12,2.12,0,0,0,1.15.3,1.62,1.62,0,0,0,1.59-.92h2.13a2.61,2.61,0,0,1-.77,1.44,3.88,3.88,0,0,1-3,1.16,4.35,4.35,0,0,1-2.81-1,3.87,3.87,0,0,1-1.22-3.2,4.32,4.32,0,0,1,1.1-3.18,3.85,3.85,0,0,1,2.85-1.11A4.54,4.54,0,0,1,112.15,157Zm-3.12,1.8a2.17,2.17,0,0,0-.56,1.24h3.6a1.74,1.74,0,0,0-.56-1.26,1.83,1.83,0,0,0-1.24-.43A1.65,1.65,0,0,0,109,158.77Z"/><path d="M117.42,164.79h-2.09V154h2.09Z"/><path d="M121.58,164.79H119.5V154h2.09Z"/><path d="M130.28,163.81a4.4,4.4,0,0,1-6.14,0,5,5,0,0,1,0-6,4.35,4.35,0,0,1,6.14,0,5,5,0,0,1,0,6Zm-1.67-1.15a3.73,3.73,0,0,0,0-3.7,1.86,1.86,0,0,0-2.82,0,3.7,3.7,0,0,0,0,3.7,1.85,1.85,0,0,0,2.82,0Z"/><path d="M136.55,156.8h2.12l1.22,5.75,1.25-5.75h2.18l-2.31,8h-2.15L137.59,159l-1.27,5.82h-2.17l-2.24-8h2.24l1.25,5.73Z"/><path d="M78.46,173.57l-.26,2.11h1.68l-.1,1h-1.7l-.26,2.07h-1l.25-2.07H74.93l-.26,2.07h-1l.25-2.07H72.23l.1-1H74l.25-2.11H72.63l.1-1h1.7l.26-2.15h1l-.26,2.15h2.12l.26-2.15h1l-.26,2.15h1.67l-.08,1Zm-1,0H75.32l-.26,2.11h2.14Z" style="fill:#712ff5"/><path d="M87.35,170.39v1.27H83.13v2.42h3.81v1.26H83.13v3.44H81.71v-8.4Z" style="fill:#712ff5"/><path d="M92.35,171.61a3,3,0,1,0,0,5.91,3.47,3.47,0,0,0,2.34-1l.84.94a4.76,4.76,0,0,1-3.25,1.38,4.25,4.25,0,1,1,0-8.49,4.63,4.63,0,0,1,3.19,1.29l-.83,1A3.28,3.28,0,0,0,92.35,171.61Z" style="fill:#712ff5"/><path d="M100.54,171.61a3,3,0,1,0,0,5.91,3.47,3.47,0,0,0,2.34-1l.84.94a4.76,4.76,0,0,1-3.25,1.38,4.25,4.25,0,1,1,0-8.49,4.63,4.63,0,0,1,3.19,1.29l-.83,1A3.28,3.28,0,0,0,100.54,171.61Z" style="fill:#712ff5"/><path d="M111.77,174.59c0,2.72-1.27,4.23-3.56,4.23s-3.57-1.51-3.57-4.23,1.27-4.23,3.57-4.23S111.77,171.86,111.77,174.59Zm-5.69,0c0,2.12.71,3.12,2.12,3.12s2.11-1,2.11-3.12-.71-3.12-2.11-3.12S106.08,172.45,106.08,174.59Z" style="fill:#712ff5"/><path d="M118.9,170.39v1.08l-3.35,7.32h-1.5l3.26-7.12h-3.26v1.18h-1.25v-2.45Z" style="fill:#712ff5"/><path d="M125.93,170.39v1.27h-4.21v2.42h3.81v1.26h-3.81v3.44h-1.42v-8.4Z" style="fill:#712ff5"/></svg>