<svg id="Calque_1" data-name="Calque 1" xmlns="http://www.w3.org/2000/svg" viewBox="0 0 200 200"><title>palettes</title><circle cx="101.13" cy="80" r="56" style="fill:#60b2b7"/><path d="M63.76,154H66v8.85h5.39v1.94H63.76Z"/><path d="M78,157a3.25,3.25,0,0,1,1.38,1.18,3.91,3.91,0,0,1,.64,1.65,10.1,10.1,0,0,1,.07,1.58H74.23a1.92,1.92,0,0,0,.84,1.68,2.12,2.12,0,0,0,1.15.3,1.77,1.77,0,0,0,1.16-.37,1.75,1.75,0,0,0,.43-.55h2.13a2.6,2.6,0,0,1-.77,1.44,3.88,3.88,0,0,1-3,1.16,4.35,4.35,0,0,1-2.81-1,3.87,3.87,0,0,1-1.22-3.2,4.33,4.33,0,0,1,1.1-3.18,3.85,3.85,0,0,1,2.86-1.11A4.54,4.54,0,0,1,78,157Zm-3.12,1.8a2.17,2.17,0,0,0-.56,1.24h3.6a1.75,1.75,0,0,0-.56-1.26,1.83,1.83,0,0,0-1.24-.43A1.66,1.66,0,0,0,74.84,158.77Z"/><path d="M86,156.8h2.24l-2.88,8h-2.2l-2.86-8h2.34l1.66,5.89Z"/><path d="M94.64,157A3.25,3.25,0,0,1,96,158.14a3.93,3.93,0,0,1,.64,1.65,10.32,10.32,0,0,1,.07,1.58H90.91a1.91,1.91,0,0,0,.83,1.68,2.12,2.12,0,0,0,1.15.3,1.62,1.62,0,0,0,1.59-.92h2.13a2.61,2.61,0,0,1-.77,1.44,3.88,3.88,0,0,1-3,1.16,4.35,4.35,0,0,1-2.81-1,3.87,3.87,0,0,1-1.22-3.2,4.32,4.32,0,0,1,1.1-3.18,3.85,3.85,0,0,1,2.85-1.11A4.54,4.54,0,0,1,94.64,157Zm-3.12,1.8A2.17,2.17,0,0,0,91,160h3.6a1.74,1.74,0,0,0-.56-1.26,1.83,1.83,0,0,0-1.24-.43A1.65,1.65,0,0,0,91.52,158.77Z"/><path d="M99.91,164.79H97.83V154h2.09Z"/><path d="M114.34,155.14a2.74,2.74,0,0,1,.5,1.65,2.4,2.4,0,0,1-.5,1.59,2.58,2.58,0,0,1-.82.62,2.4,2.4,0,0,1,1.25,1,2.85,2.85,0,0,1,.42,1.58,3.16,3.16,0,0,1-.48,1.72,3,3,0,0,1-2,1.39,7.49,7.49,0,0,1-1.53.15h-4.86V154h5.22A3.31,3.31,0,0,1,114.34,155.14Zm-5.86.73v2.38h2.63a2.16,2.16,0,0,0,1.14-.27,1,1,0,0,0,.44-.95,1,1,0,0,0-.58-1,4.07,4.07,0,0,0-1.28-.17Zm0,4.17v2.88h2.62a2.55,2.55,0,0,0,1.09-.19,1.36,1.36,0,0,0,.71-1.35,1.16,1.16,0,0,0-.69-1.16,2.73,2.73,0,0,0-1.08-.18Z"/><path d="M119.08,164.79H117V154h2.09Z"/><path d="M123.2,156.8v4.81a2.52,2.52,0,0,0,.16,1,1.11,1.11,0,0,0,1.12.61,1.46,1.46,0,0,0,1.46-.86,3.13,3.13,0,0,0,.2-1.24V156.8h2.12v8h-2v-1.13l-.15.22a1.49,1.49,0,0,1-.28.32,2.91,2.91,0,0,1-.95.6,3.21,3.21,0,0,1-1.07.16,2.38,2.38,0,0,1-2.38-1.27,4.88,4.88,0,0,1-.34-2.07V156.8Z"/><path d="M135.48,157a3.25,3.25,0,0,1,1.38,1.18,3.93,3.93,0,0,1,.64,1.65,10.32,10.32,0,0,1,.07,1.58h-5.81a1.91,1.91,0,0,0,.83,1.68,2.12,2.12,0,0,0,1.15.3,1.62,1.62,0,0,0,1.59-.92h2.13a2.61,2.61,0,0,1-.77,1.44,3.88,3.88,0,0,1-3,1.16,4.35,4.35,0,0,1-2.81-1,3.87,3.87,0,0,1-1.22-3.2,4.32,4.32,0,0,1,1.1-3.18,3.85,3.85,0,0,1,2.85-1.11A4.54,4.54,0,0,1,135.48,157Zm-3.12,1.8a2.17,2.17,0,0,0-.56,1.24h3.6a1.74,1.74,0,0,0-.56-1.26,1.83,1.83,0,0,0-1.24-.43A1.65,1.65,0,0,0,132.36,158.77Z"/><path d="M79.08,173.57l-.26,2.11h1.68l-.1,1h-1.7l-.26,2.07h-1l.25-2.07H75.55l-.26,2.07h-1l.25-2.07H72.85l.1-1h1.71l.25-2.11H73.25l.1-1H75l.26-2.15h1l-.26,2.15h2.12l.26-2.15h1l-.26,2.15h1.67l-.08,1Zm-1,0H75.93l-.26,2.11h2.13Z" style="fill:#712ff5"/><path d="M85.52,171.51c-1.63,0-2.39,1.22-2.34,3a2.46,2.46,0,0,1,2.29-1.19,2.49,2.49,0,0,1,2.7,2.67,2.69,2.69,0,0,1-3,2.82c-2.12,0-3.42-1.51-3.42-4.09s1.4-4.43,3.62-4.43a5.55,5.55,0,0,1,2.51.64L87.38,172A3.57,3.57,0,0,0,85.52,171.51Zm-2.11,4.56a1.57,1.57,0,0,0,1.74,1.56,1.54,1.54,0,0,0,1.7-1.61,1.48,1.48,0,0,0-1.64-1.55A1.62,1.62,0,0,0,83.41,176.06Z" style="fill:#712ff5"/><path d="M96.32,174.59c0,2.72-1.27,4.23-3.56,4.23s-3.57-1.51-3.57-4.23,1.27-4.23,3.57-4.23S96.32,171.86,96.32,174.59Zm-5.68,0c0,2.12.71,3.12,2.12,3.12s2.11-1,2.11-3.12-.71-3.12-2.11-3.12S90.63,172.45,90.63,174.59Z" style="fill:#712ff5"/><path d="M104.47,172.49a1.86,1.86,0,0,1-1.47,1.87,2,2,0,0,1,1.8,2.12c0,1.44-1.16,2.3-3.06,2.3H98v-8.4h3.65C103.39,170.39,104.47,171.18,104.47,172.49Zm-1.45.25c0-.7-.54-1.09-1.44-1.08H99.42v2.21h2.16C102.48,173.87,103,173.46,103,172.74Zm.32,3.56c0-.74-.66-1.2-1.76-1.19H99.42v2.4h2.16C102.68,177.53,103.34,177.08,103.34,176.3Z" style="fill:#712ff5"/><path d="M110,172.64c0-.67-.53-1.08-1.4-1.08a3.84,3.84,0,0,0-2.29,1.06l-.56-1.09a5.2,5.2,0,0,1,3.17-1.2c1.52,0,2.57.83,2.57,2.11A4.39,4.39,0,0,1,110,175.2l-2.18,2.31h4.1v1.27h-6v-1l3.09-3.32A2.8,2.8,0,0,0,110,172.64Z" style="fill:#712ff5"/><path d="M120,172.49a1.86,1.86,0,0,1-1.48,1.87,2,2,0,0,1,1.8,2.12c0,1.44-1.16,2.3-3.06,2.3h-3.73v-8.4h3.65C118.92,170.39,120,171.18,120,172.49Zm-1.45.25c0-.7-.54-1.09-1.44-1.08h-2.16v2.21h2.16C118,173.87,118.54,173.46,118.54,172.74Zm.32,3.56c0-.74-.66-1.2-1.76-1.19h-2.16v2.4h2.16C118.21,177.53,118.87,177.08,118.87,176.3Z" style="fill:#712ff5"/><path d="M127.45,170.39v1.08l-3.35,7.32h-1.5l3.26-7.12H122.6v1.18h-1.25v-2.45Z" style="fill:#712ff5"/></svg>